<svg width="128" height="17" viewBox="0 0 128 17" fill="none" xmlns="http://www.w3.org/2000/svg">
<path d="M3.69531 16L0.429688 4H3.79688L5.65625 12.0625H5.76563L7.70313 4H11.0078L12.9766 12.0156H13.0781L14.9062 4H18.2656L15.0078 16H11.4844L9.42188 8.45312H9.27344L7.21094 16H3.69531ZM25.1621 16.2344C23.9486 16.2344 22.8991 15.9766 22.0137 15.4609C21.1335 14.9401 20.4538 14.2161 19.9746 13.2891C19.4954 12.3568 19.2559 11.276 19.2559 10.0469C19.2559 8.80729 19.4954 7.72396 19.9746 6.79687C20.4538 5.86458 21.1335 5.14062 22.0137 4.625C22.8991 4.10417 23.9486 3.84375 25.1621 3.84375C26.3757 3.84375 27.4225 4.10417 28.3027 4.625C29.1882 5.14062 29.8704 5.86458 30.3496 6.79687C30.8288 7.72396 31.0684 8.80729 31.0684 10.0469C31.0684 11.276 30.8288 12.3568 30.3496 13.2891C29.8704 14.2161 29.1882 14.9401 28.3027 15.4609C27.4225 15.9766 26.3757 16.2344 25.1621 16.2344ZM25.1777 13.6562C25.7298 13.6562 26.1908 13.5 26.5605 13.1875C26.9303 12.8698 27.209 12.4375 27.3965 11.8906C27.5892 11.3437 27.6855 10.7214 27.6855 10.0234C27.6855 9.32552 27.5892 8.70313 27.3965 8.15625C27.209 7.60937 26.9303 7.17708 26.5605 6.85937C26.1908 6.54167 25.7298 6.38281 25.1777 6.38281C24.6204 6.38281 24.1517 6.54167 23.7715 6.85937C23.3965 7.17708 23.1126 7.60937 22.9199 8.15625C22.7324 8.70313 22.6387 9.32552 22.6387 10.0234C22.6387 10.7214 22.7324 11.3437 22.9199 11.8906C23.1126 12.4375 23.3965 12.8698 23.7715 13.1875C24.1517 13.5 24.6204 13.6562 25.1777 13.6562ZM33.2324 16V4H36.459V6.09375H36.584C36.8027 5.34896 37.1699 4.78646 37.6855 4.40625C38.2012 4.02083 38.7949 3.82812 39.4668 3.82812C39.6335 3.82812 39.8132 3.83854 40.0059 3.85937C40.1986 3.88021 40.3678 3.90885 40.5137 3.94531V6.89844C40.3574 6.85156 40.1413 6.8099 39.8652 6.77344C39.5892 6.73698 39.3366 6.71875 39.1074 6.71875C38.6178 6.71875 38.1803 6.82552 37.7949 7.03906C37.4147 7.2474 37.1126 7.53906 36.8887 7.91406C36.6699 8.28906 36.5605 8.72135 36.5605 9.21094V16H33.2324ZM45.25 12.5469L45.2578 8.55469H45.7422L49.5859 4H53.4062L48.2422 10.0313H47.4531L45.25 12.5469ZM42.2344 16V-4.76837e-07H45.5625V16H42.2344ZM49.7344 16L46.2031 10.7734L48.4219 8.42187L53.6328 16H49.7344ZM59.9668 16.2344C58.7533 16.2344 57.7038 15.9766 56.8184 15.4609C55.9382 14.9401 55.2585 14.2161 54.7793 13.2891C54.3001 12.3568 54.0605 11.276 54.0605 10.0469C54.0605 8.80729 54.3001 7.72396 54.7793 6.79687C55.2585 5.86458 55.9382 5.14062 56.8184 4.625C57.7038 4.10417 58.7533 3.84375 59.9668 3.84375C61.1803 3.84375 62.2272 4.10417 63.1074 4.625C63.9928 5.14062 64.6751 5.86458 65.1543 6.79687C65.6335 7.72396 65.873 8.80729 65.873 10.0469C65.873 11.276 65.6335 12.3568 65.1543 13.2891C64.6751 14.2161 63.9928 14.9401 63.1074 15.4609C62.2272 15.9766 61.1803 16.2344 59.9668 16.2344ZM59.9824 13.6562C60.5345 13.6562 60.9954 13.5 61.3652 13.1875C61.735 12.8698 62.0137 12.4375 62.2012 11.8906C62.3939 11.3437 62.4902 10.7214 62.4902 10.0234C62.4902 9.32552 62.3939 8.70313 62.2012 8.15625C62.0137 7.60937 61.735 7.17708 61.3652 6.85937C60.9954 6.54167 60.5345 6.38281 59.9824 6.38281C59.4251 6.38281 58.9564 6.54167 58.5762 6.85937C58.2012 7.17708 57.9173 7.60937 57.7246 8.15625C57.5371 8.70313 57.4434 9.32552 57.4434 10.0234C57.4434 10.7214 57.5371 11.3437 57.7246 11.8906C57.9173 12.4375 58.2012 12.8698 58.5762 13.1875C58.9564 13.5 59.4251 13.6562 59.9824 13.6562ZM75.7324 10.8906V4H79.0605V16H75.8652V13.8203H75.7402C75.4694 14.5234 75.0189 15.0885 74.3887 15.5156C73.7637 15.9427 73.0007 16.1563 72.0996 16.1563C71.2975 16.1563 70.5918 15.974 69.9824 15.6094C69.373 15.2448 68.8965 14.7266 68.5527 14.0547C68.2142 13.3828 68.0423 12.5781 68.0371 11.6406V4H71.3652V11.0469C71.3704 11.7552 71.5605 12.3151 71.9355 12.7266C72.3105 13.138 72.8132 13.3437 73.4434 13.3437C73.8444 13.3437 74.2194 13.2526 74.5684 13.0703C74.9173 12.8828 75.1986 12.6068 75.4121 12.2422C75.6309 11.8776 75.7376 11.4271 75.7324 10.8906ZM88.1055 4V6.5H80.8789V4H88.1055ZM82.5195 1.125H85.8477V12.3125C85.8477 12.6198 85.8945 12.8594 85.9883 13.0312C86.082 13.1979 86.2122 13.3151 86.3789 13.3828C86.5508 13.4505 86.7487 13.4844 86.9727 13.4844C87.1289 13.4844 87.2852 13.4714 87.4414 13.4453C87.5977 13.4141 87.7174 13.3906 87.8008 13.375L88.3242 15.8516C88.1576 15.9036 87.9232 15.9635 87.6211 16.0313C87.319 16.1042 86.9518 16.1484 86.5195 16.1641C85.7174 16.1953 85.0143 16.0885 84.4102 15.8437C83.8112 15.599 83.3451 15.2187 83.0117 14.7031C82.6784 14.1875 82.5143 13.5365 82.5195 12.75V1.125ZM92.2188 16.2031C91.7031 16.2031 91.2604 16.0208 90.8906 15.6562C90.526 15.2865 90.3438 14.8437 90.3438 14.3281C90.3438 13.8177 90.526 13.3802 90.8906 13.0156C91.2604 12.651 91.7031 12.4687 92.2188 12.4687C92.7188 12.4687 93.1563 12.651 93.5313 13.0156C93.9063 13.3802 94.0938 13.8177 94.0938 14.3281C94.0938 14.6719 94.0052 14.987 93.8281 15.2734C93.6563 15.5547 93.4297 15.7812 93.1484 15.9531C92.8672 16.1198 92.5573 16.2031 92.2188 16.2031ZM96.8262 16V4H99.998V6.11719H100.139C100.389 5.41406 100.805 4.85937 101.389 4.45312C101.972 4.04687 102.67 3.84375 103.482 3.84375C104.305 3.84375 105.006 4.04948 105.584 4.46094C106.162 4.86719 106.548 5.41927 106.74 6.11719H106.865C107.11 5.42969 107.553 4.88021 108.193 4.46875C108.839 4.05208 109.602 3.84375 110.482 3.84375C111.602 3.84375 112.511 4.20052 113.209 4.91406C113.912 5.6224 114.264 6.6276 114.264 7.92969V16H110.943V8.58594C110.943 7.91927 110.766 7.41927 110.412 7.08594C110.058 6.7526 109.615 6.58594 109.084 6.58594C108.48 6.58594 108.008 6.77865 107.67 7.16406C107.331 7.54427 107.162 8.04687 107.162 8.67187V16H103.936V8.51562C103.936 7.92708 103.766 7.45833 103.428 7.10937C103.094 6.76042 102.654 6.58594 102.107 6.58594C101.738 6.58594 101.404 6.67969 101.107 6.86719C100.816 7.04948 100.584 7.30729 100.412 7.64062C100.24 7.96875 100.154 8.35417 100.154 8.79687V16H96.8262ZM122.361 16.2344C121.127 16.2344 120.064 15.9844 119.174 15.4844C118.288 14.9792 117.606 14.2656 117.127 13.3437C116.648 12.4167 116.408 11.3203 116.408 10.0547C116.408 8.82031 116.648 7.73698 117.127 6.80469C117.606 5.8724 118.281 5.14583 119.15 4.625C120.025 4.10417 121.051 3.84375 122.229 3.84375C123.02 3.84375 123.757 3.97135 124.439 4.22656C125.127 4.47656 125.726 4.85417 126.236 5.35937C126.752 5.86458 127.153 6.5 127.439 7.26562C127.726 8.02604 127.869 8.91667 127.869 9.9375V10.8516H117.736V8.78906H124.736C124.736 8.3099 124.632 7.88542 124.424 7.51563C124.215 7.14583 123.926 6.85677 123.557 6.64844C123.192 6.4349 122.768 6.32812 122.283 6.32812C121.778 6.32812 121.33 6.44531 120.939 6.67969C120.554 6.90885 120.252 7.21875 120.033 7.60937C119.814 7.99479 119.702 8.42448 119.697 8.89844V10.8594C119.697 11.4531 119.807 11.9661 120.025 12.3984C120.249 12.8307 120.564 13.1641 120.971 13.3984C121.377 13.6328 121.859 13.75 122.416 13.75C122.786 13.75 123.124 13.6979 123.432 13.5938C123.739 13.4896 124.002 13.3333 124.221 13.125C124.439 12.9167 124.606 12.6615 124.721 12.3594L127.799 12.5625C127.643 13.3021 127.322 13.9479 126.838 14.5C126.359 15.0469 125.739 15.474 124.979 15.7813C124.223 16.0833 123.351 16.2344 122.361 16.2344Z" fill="#89C5CC"/>
</svg>
